<?xml version="1.0" standalone="no"?>
<!DOCTYPE svg PUBLIC "-//W3C//DTD SVG 20010904//EN"
 "http://www.w3.org/TR/2001/REC-SVG-20010904/DTD/svg10.dtd">
<svg version="1.0" xmlns="http://www.w3.org/2000/svg"
 width="598.000000pt" height="598.000000pt" viewBox="0 0 598.000000 598.000000"
 preserveAspectRatio="xMidYMid meet">
<metadata>
Created by potrace 1.14, written by Peter Selinger 2001-2017
</metadata>
<g transform="translate(0.000000,598.000000) scale(0.100000,-0.100000)"
fill="#000000" stroke="none">
<path d="M2949 5713 c-5 -33 -3 -83 4 -83 4 0 7 -4 7 -10 0 -5 -11 -10 -24
-10 -19 0 -25 -6 -28 -27 -2 -22 -9 -29 -33 -33 -24 -4 -31 -11 -33 -33 -2
-15 -8 -28 -13 -28 -5 -1 -18 -2 -28 -3 -28 -2 -30 -6 -32 -74 -2 -47 -5 -60
-14 -52 -14 12 -31 -4 -36 -34 -3 -11 -14 -21 -29 -23 -30 -4 -42 -21 -36 -51
3 -19 0 -23 -15 -19 -33 9 -59 -20 -57 -63 1 -22 5 -37 11 -33 5 3 8 0 5 -8
-2 -8 -17 -15 -32 -17 -22 -3 -27 -8 -23 -22 7 -25 -12 -48 -43 -52 -14 -2
-25 -10 -25 -18 -1 -22 -15 -41 -26 -35 -5 4 -17 4 -27 1 -14 -5 -18 -16 -17
-44 1 -21 5 -43 9 -50 9 -14 -12 -45 -24 -37 -17 10 -38 -7 -33 -26 4 -15 0
-19 -20 -19 -37 0 -50 -23 -48 -86 1 -55 0 -56 -24 -52 -22 5 -25 2 -25 -23 0
-24 -4 -28 -32 -31 l-33 -3 -3 -66 -3 -65 -30 4 c-29 4 -29 3 -24 -28 4 -21 2
-29 -5 -25 -24 15 -58 -5 -70 -41 -11 -32 -10 -37 11 -55 12 -10 17 -19 10
-19 -7 0 -19 -7 -27 -15 -8 -8 -21 -12 -28 -9 -10 4 -13 -8 -13 -49 1 -59 -7
-79 -27 -71 -7 3 -19 -2 -26 -11 -7 -8 -9 -15 -6 -15 21 0 -16 -34 -39 -36
-15 -2 -29 -5 -32 -7 -11 -11 -8 -64 5 -84 12 -19 11 -23 -7 -32 -11 -6 -24
-11 -28 -10 -23 4 -28 -5 -25 -51 2 -27 0 -50 -5 -51 -55 -5 -64 -18 -61 -84
3 -44 1 -50 -17 -50 -15 0 -21 -8 -23 -32 -3 -30 -6 -33 -38 -33 l-35 0 1 -72
c2 -109 2 -108 -22 -108 -13 0 -28 -4 -34 -8 -14 -9 -14 -95 0 -104 6 -4 -2
-8 -19 -8 -16 0 -35 -4 -41 -8 -11 -8 -14 -82 -2 -82 4 0 6 -9 5 -20 -1 -14
-11 -22 -34 -26 -36 -7 -36 -6 -33 -76 1 -46 1 -47 -32 -50 l-33 -3 -3 -77
c-2 -49 1 -78 8 -78 26 0 6 -19 -22 -22 l-33 -3 0 -113 c0 -96 -2 -112 -16
-112 -15 0 -16 -21 -14 -192 2 -106 4 -307 6 -445 2 -226 4 -253 19 -253 14 0
16 -15 15 -107 -1 -141 0 -143 41 -143 19 0 34 -4 34 -10 0 -5 -4 -10 -10 -10
-14 0 -12 -74 2 -88 7 -7 22 -12 35 -12 21 0 23 -4 23 -55 0 -30 5 -56 10 -56
6 -1 15 -3 20 -4 6 -1 17 -3 25 -4 10 -1 15 -11 15 -30 0 -25 3 -29 25 -26 14
1 25 -3 26 -9 0 -6 1 -33 2 -61 l2 -50 35 0 c34 0 35 -1 33 -36 -1 -34 0 -35
33 -34 33 2 39 -5 35 -41 -1 -6 6 -17 14 -24 11 -9 15 -9 15 -1 0 7 4 10 9 7
5 -3 8 -29 7 -56 -3 -62 13 -75 90 -72 49 2 50 1 50 -26 -1 -23 3 -27 27 -25
15 1 25 -2 22 -8 -4 -5 -1 -9 5 -9 7 0 10 -6 7 -14 -6 -15 12 -26 44 -26 10 0
18 -3 18 -8 -1 -4 -1 -19 0 -34 1 -25 5 -28 36 -28 32 0 35 -2 35 -29 0 -38 5
-40 63 -31 36 5 47 4 48 -7 1 -7 3 -17 4 -23 1 -5 3 -15 4 -20 0 -6 26 -9 61
-8 57 3 61 2 56 -17 -9 -37 9 -50 71 -50 53 0 58 -2 63 -25 6 -24 8 -25 83
-23 62 2 77 0 77 -12 0 -8 6 -15 13 -16 17 0 245 2 517 6 129 2 304 4 388 4
128 1 152 3 152 16 0 16 31 20 118 16 39 -2 42 0 42 23 0 14 6 26 13 27 6 1
32 2 57 3 57 1 71 11 68 44 -3 25 -1 26 49 27 29 1 56 4 59 7 6 6 12 32 13 58
1 9 4 11 9 5 4 -5 27 -10 52 -10 43 0 45 1 48 33 3 29 6 32 38 32 32 0 34 2
34 35 l0 35 60 0 c48 0 60 3 60 16 0 17 24 45 37 43 25 -4 33 3 29 26 -4 21
-1 25 19 25 19 0 26 7 33 32 6 25 15 34 41 41 22 5 31 13 27 22 -2 7 0 15 6
17 6 2 12 12 14 22 2 15 0 15 -14 4 -11 -9 -14 -9 -8 -1 4 7 2 22 -4 33 -10
18 -8 20 25 20 35 0 42 10 36 57 -1 6 11 13 26 15 20 2 27 8 25 20 -3 19 30
41 50 33 20 -8 35 35 24 72 -12 41 -3 63 24 58 11 -2 20 1 20 6 0 6 4 8 9 4 6
-3 11 19 13 52 3 53 5 58 27 59 13 1 27 8 32 15 12 19 11 76 -1 84 -16 10 -11
23 8 20 9 -1 25 2 34 6 15 8 17 22 14 94 -3 74 -1 85 13 83 14 -3 16 25 13
287 -4 289 -10 679 -11 703 -1 6 -10 12 -21 12 -16 0 -19 4 -12 18 11 23 4
154 -9 163 -6 3 -21 5 -35 3 -13 -1 -24 2 -24 7 0 5 5 9 10 9 15 0 13 145 -2
158 -7 5 -23 8 -35 6 -21 -4 -23 0 -24 44 -1 26 -1 53 0 60 1 6 -8 12 -21 12
-13 0 -28 4 -34 8 -14 9 -26 42 -15 42 6 0 8 100 2 132 0 4 -13 8 -28 10 -25
3 -28 7 -29 43 -3 87 -2 84 -38 90 -28 6 -33 11 -34 33 0 84 1 82 -38 82 -33
0 -36 2 -30 23 3 12 6 27 6 32 0 6 5 3 10 -5 8 -13 10 -13 10 2 0 9 -4 28 -10
42 -7 20 -17 26 -39 26 -26 0 -32 5 -39 33 -6 22 -15 33 -30 35 -18 3 -21 11
-24 55 -2 38 -7 52 -18 53 -27 2 -50 16 -50 30 0 8 4 14 9 14 15 0 10 63 -6
78 -7 8 -20 11 -28 8 -21 -8 -32 21 -31 77 2 49 2 48 -49 51 -14 1 -20 8 -20
26 0 15 -6 25 -15 26 -8 1 -25 4 -37 9 -20 7 -21 9 -7 29 29 46 -7 108 -58
101 -12 -2 -15 3 -13 17 6 30 -3 38 -30 28 -24 -9 -24 -8 -27 58 l-3 67 -32 3
c-29 3 -33 7 -33 31 0 25 -3 28 -25 23 -23 -4 -25 -1 -26 34 -2 68 -4 79 -12
92 -5 6 -21 12 -36 12 -22 0 -27 4 -27 23 1 13 -5 23 -14 23 -8 1 -23 2 -33 3
-12 1 -15 5 -11 13 4 7 9 32 9 56 2 44 -13 63 -45 59 -8 -1 -15 0 -16 3 -4 25
-29 50 -49 50 -13 0 -27 5 -30 10 -3 6 -2 10 2 10 13 0 7 88 -7 105 -7 9 -22
14 -33 13 -15 -2 -23 4 -27 22 -3 14 -12 26 -20 26 -8 1 -20 2 -26 3 -6 0 -9
12 -7 25 6 27 -24 50 -51 40 -12 -5 -14 1 -9 30 8 52 -3 86 -27 81 -24 -5 -53
22 -46 42 6 14 -32 35 -46 26 -5 -2 -8 7 -8 22 0 25 -10 34 -47 39 -23 4 -30
34 -9 42 9 3 16 16 16 28 0 17 -2 18 -10 6 -10 -15 -11 -13 -14 25 -1 15 -9
21 -32 23 -22 2 -34 9 -37 23 -5 18 -15 19 -156 19 -83 0 -151 -3 -152 -7z
m-88 -1116 c-1 -4 -1 -14 -1 -22 0 -8 -4 -15 -9 -15 -5 0 -8 11 -8 25 0 14 4
24 9 23 5 -2 9 -7 9 -11z m-69 -163 c-5 -71 -18 -75 -18 -4 1 35 5 58 11 56 6
-2 9 -25 7 -52z m-52 -99 c-7 -8 -10 -21 -7 -30 4 -8 2 -17 -3 -20 -14 -8 -12
38 2 72 9 23 12 24 15 10 3 -10 -1 -24 -7 -32z m-15 -128 c-1 -18 2 -40 7 -49
9 -19 0 -27 -37 -34 -16 -3 -25 0 -26 8 -8 97 -7 102 33 105 21 2 24 -2 23
-30z m-57 -179 c2 -60 -1 -88 -9 -94 -9 -5 -10 -2 -6 9 8 22 -3 21 -32 -4 -21
-17 -24 -27 -22 -82 1 -34 6 -66 12 -72 12 -12 12 -28 -1 -20 -5 3 -10 0 -10
-7 0 -9 -3 -9 -10 2 -8 13 -11 12 -25 -5 -12 -15 -15 -39 -13 -97 2 -42 2 -75
0 -73 -2 2 -17 -1 -33 -7 l-29 -10 3 -121 c2 -116 1 -122 -18 -123 -48 -3 -51
-8 -48 -116 1 -55 5 -103 8 -106 9 -9 -17 -32 -36 -32 -18 0 -19 -9 -18 -145
0 -79 -2 -149 -6 -155 -3 -5 -19 -10 -34 -10 l-28 0 4 -322 c3 -306 10 -747
12 -776 1 -8 11 -13 24 -12 12 1 27 2 33 1 6 -1 11 -46 12 -122 1 -67 4 -125
8 -128 3 -3 15 -6 26 -6 19 0 20 -7 22 -80 l1 -80 -31 -1 c-27 -1 -30 2 -26
27 3 21 -1 29 -20 35 -12 4 -29 7 -35 6 -7 -2 -13 6 -13 18 0 18 -15 25 -42
21 -10 -1 -29 36 -26 51 2 8 -8 14 -24 16 -23 3 -28 8 -28 32 0 24 -5 29 -35
34 -38 8 -43 17 -20 40 32 32 2 86 -48 86 -26 0 -29 3 -25 24 7 34 -7 55 -24
38 -24 -24 -33 -12 -33 46 1 62 -11 81 -52 82 -13 0 -23 5 -23 10 0 6 6 10 14
10 10 0 13 13 10 58 -5 71 -20 102 -51 102 l-23 0 -1 198 c-1 343 -5 497 -11
508 -4 6 6 11 25 12 17 2 36 7 41 12 13 13 9 144 -4 148 -21 7 -10 33 13 31
37 -5 47 9 47 66 0 53 0 54 33 57 l32 3 0 63 c0 61 0 62 28 62 20 0 27 5 27
20 0 11 5 20 10 20 6 0 9 12 9 28 -1 17 -3 20 -6 9 -2 -9 -9 -15 -14 -11 -5 3
-7 10 -3 15 3 5 0 16 -6 24 -11 13 -6 15 27 15 l39 0 -1 56 c0 31 4 58 10 59
5 2 21 6 35 9 24 5 25 9 25 66 -1 50 1 59 14 55 34 -10 44 10 37 69 -7 52 -6
56 12 56 38 0 52 11 53 44 0 17 3 25 6 19 7 -18 23 -16 45 4 21 19 26 103 6
103 -24 0 8 20 36 22 28 3 28 3 23 60 -5 57 -5 58 21 59 15 1 31 1 35 0 5 -1
8 7 7 16 -5 44 0 53 24 49 14 -2 29 1 35 7 11 14 10 75 -2 94 -4 7 0 13 10 15
44 10 47 4 51 -84z"/>
</g>
</svg>
